<?xml version="1.0" encoding="UTF-8" standalone="no"?>
<svg
   version="1.0"
   width="469.000000pt"
   height="713.000000pt"
   viewBox="0 0 469.000000 713.000000"
   preserveAspectRatio="xMidYMid meet"
   id="svg417"
   sodipodi:docname="BuhoVector.svg"
   inkscape:version="1.2.1 (9c6d41e410, 2022-07-14)"
   xmlns:inkscape="http://www.inkscape.org/namespaces/inkscape"
   xmlns:sodipodi="http://sodipodi.sourceforge.net/DTD/sodipodi-0.dtd"
   xmlns="http://www.w3.org/2000/svg"
   xmlns:svg="http://www.w3.org/2000/svg">
  <defs
     id="defs421" />
  <sodipodi:namedview
     id="namedview419"
     pagecolor="#fff"
     bordercolor="#fff"
     borderopacity="0.25"
     inkscape:showpageshadow="2"
     inkscape:pageopacity="0.0"
     inkscape:pagecheckerboard="0"
     inkscape:deskcolor="#d1d1d1"
     inkscape:document-units="pt"
     showgrid="false"
     inkscape:zoom="0.62256141"
     inkscape:cx="-314.82838"
     inkscape:cy="424.05456"
     inkscape:window-width="1920"
     inkscape:window-height="1017"
     inkscape:window-x="-8"
     inkscape:window-y="-8"
     inkscape:window-maximized="1"
     inkscape:current-layer="g415" />
  <g
     transform="translate(0.000000,713.000000) scale(0.100000,-0.100000)"
     fill="#000000"
     stroke="none"
     id="g415">
    <path
       d="m 2150,6899 c -346,-27 -650,-125 -962,-311 -64.4958,-54.7266 -64.7898,-55.0626 -118,-93 -7,-8 -19,-15 -26,-15 -38.4991,-18.1835 -37.8703,-20.0129 -97,-56 -105.34314,-95.1315 -103.85669,-91.8168 -172,-164 -24.6207,-23.8966 -38.69721,-43.6249 -64,-66 -17,-16 -31,-33 -31,-38 0,0 -8.74383,-3.2987 -35,-38 64.04432,65.7968 -17.68288,28.1867 -190,-264 -27,-36 -143,-279 -179,-376 -37,-99 -91,-296 -84,-303 2,-3 64,1 137,8 l 134,12 13,50 c 23,92 93,266 150,374 289,548 828,925 1438,1006 141,19 383,19 518,0 614,-86 1144,-458 1436,-1006 47,-89 123,-278 147,-365 l 17,-61 131,-11 c 72,-6 133,-9 136,-7 12,12 -60,254 -114,385 -45,108 -132,272 -187,352 -102,148 -120,171 -176,236 -388,449 -912,710 -1507,752 -154,11 -164,11 -315,-1 z"
       id="path397"
       sodipodi:nodetypes="cccccccccccccccccccccccccccc" />
    <path
       d="M923 6383 c-7 -3 -13 -13 -13 -23 0 -24 22 -31 37 -11 7 9 13 19 13 22 0 10 -23 17 -37 12z"
       id="path399" />
    <path
       d="M816 6301 c-4 -7 -5 -15 -2 -18 9 -9 19 4 14 18 -4 11 -6 11 -12 0z"
       id="path401" />
    <path
       d="M764 6165 c-9 -23 14 -45 26 -25 5 8 8 19 7 24 -6 17 -27 18 -33 1z"
       id="path403" />
    <path
       d="M510 5915 c-14 -17 -7 -45 13 -45 19 0 37 21 37 42 0 22 -32 24 -50 3z"
       id="path405" />
    <path
       d="M235 5034 c-60 -8 -114 -19 -119 -24 -7 -7 -1 -10 15 -10 67 0 308 -61 488 -124 181 -64 408 -162 397 -173 -2 -2 -48 9 -103 26 -119 36 -323 91 -340 91 -20 0 -16 -134 5 -216 125 -473 699 -632 1049 -291 l52 50 48 -39 c266 -214 458 -490 587 -839 6 -16 15 -2 40 65 103 272 290 541 501 721 113 96 112 96 136 65 29 -36 125 -109 186 -139 81 -42 188 -67 278 -67 285 0 540 198 610 475 15 58 21 215 9 215 -17 0 -289 -72 -358 -95 -43 -14 -83 -24 -89 -22 -12 4 93 55 213 104 208 85 512 175 643 190 113 14 -35 41 -268 50 -554 20 -1079 -169 -1496 -540 -112 -101 -275 -288 -348 -400 -24 -37 -46 -67 -50 -67 -3 0 -30 35 -59 78 -201 302 -513 570 -842 725 -371 175 -787 242 -1185 191z"
       id="path407" />
    <path
       d="M900 2939 c1 -42 45 -272 73 -379 62 -234 195 -577 216 -554 23 24 102 152 113 181 12 33 28 45 28 20 0 -29 -40 -217 -60 -280 -43 -136 9 -86 99 98 50 101 70 152 97 253 7 24 21 12 18 -15 -25 -235 -51 -373 -92 -481 -33 -85 -3 -47 48 62 83 177 133 357 146 531 l7 90 -79 37 c-182 86 -380 223 -526 366 -49 47 -88 79 -88 71z"
       id="path409" />
    <path
       d="M3670 2883 c-141 -141 -329 -276 -509 -364 -128 -63 -122 -47 -96 -222 29 -188 65 -306 152 -485 19 -40 37 -71 40 -69 2 3 -7 43 -22 90 -14 47 -34 130 -45 184 -18 99 -37 292 -27 283 3 -3 20 -48 37 -100 18 -52 56 -142 86 -200 94 -182 124 -200 80 -48 -29 101 -61 267 -52 275 3 3 16 -19 31 -48 28 -60 106 -179 116 -179 15 0 135 307 183 470 44 150 99 416 94 455 -3 21 -10 16 -68 -42z"
       id="path411" />
    <path
       d="m 1800,2378 c 0,-45 -25,-198 -46,-288 -43,-176 -143,-407 -241,-556 -18,-28 -33,-58 -33,-67 0,-8 14,-54 30,-101 17,-48 30,-92 28,-99 62.9538,-252.5753 263.3491,-493.66468 337,-709 2,-31 112,-182 177,-244 97,-93 145,-117 242,-122 127,-7 190,19 293,119 58,56 205,249 189,249 -2,0 23,48 55,108 108,193 170,337 297,690 l 41,113 -53,87 c -144,236 -224,455 -261,712 -10,63 -19,117 -20,118 -2,2 -19,-1 -37,-7 -71,-22 -265,-51 -391,-57 -184,-9 -396,14 -579,61 -21,5 -28,3 -28,-7 z m 59,-1014 c 18,-23 21,-41 21,-116 0,-81 -2,-91 -25,-113 -30,-31 -73,-32 -103,-5 -20,19 -22,31 -22,120 0,87 3,103 20,120 30,30 83,27 109,-6 z m 183,9 c 15,-14 18,-32 18,-124 0,-100 -2,-109 -22,-123 -31,-22 -70,-20 -96,4 -20,19 -22,31 -22,122 0,80 3,105 17,120 20,23 80,24 105,1 z m 660,0 c 15,-14 18,-32 18,-124 0,-100 -2,-109 -22,-123 -31,-22 -70,-20 -96,4 -20,19 -22,31 -22,120 0,87 3,103 20,120 24,24 77,26 102,3 z m 192,-5 c 12,-17 16,-48 16,-120 0,-111 -14,-138 -70,-138 -57,0 -70,27 -70,142 0,119 10,138 71,138 28,0 42,-6 53,-22 z m -652,-80 c 4,-7 8,-41 8,-75 0,-51 -4,-66 -22,-83 -28,-26 -72,-26 -98,0 -16,16 -20,33 -20,83 0,67 12,93 45,99 27,6 77,-9 87,-24 z m 281,0 c 12,-14 17,-37 17,-75 0,-44 -5,-58 -25,-78 -30,-31 -71,-32 -102,-3 -19,18 -23,32 -23,83 0,62 11,84 50,98 24,8 64,-4 83,-25 z"
       id="path413"
       sodipodi:nodetypes="sccsccccccscccccscccscsccssccsccscccsccssccssssccscsscccsccscc" />
  </g>
</svg>
