<?xml version="1.0" encoding="UTF-8" standalone="no"?>
<svg
   version="1.0"
   width="491.000000pt"
   height="501.000000pt"
   viewBox="0 0 491.000000 501.000000"
   preserveAspectRatio="xMidYMid meet"
   id="svg8"
   sodipodi:docname="Profit.svg"
   inkscape:version="1.2.1 (9c6d41e410, 2022-07-14)"
   xmlns:inkscape="http://www.inkscape.org/namespaces/inkscape"
   xmlns:sodipodi="http://sodipodi.sourceforge.net/DTD/sodipodi-0.dtd"
   xmlns="http://www.w3.org/2000/svg"
   xmlns:svg="http://www.w3.org/2000/svg">
  <defs
     id="defs12" />
  <sodipodi:namedview
     id="namedview10"
     pagecolor="#ffffff"
     bordercolor="#000000"
     borderopacity="0.25"
     inkscape:showpageshadow="2"
     inkscape:pageopacity="0.0"
     inkscape:pagecheckerboard="0"
     inkscape:deskcolor="#d1d1d1"
     inkscape:document-units="pt"
     showgrid="false"
     inkscape:zoom="1.252994"
     inkscape:cx="462.09319"
     inkscape:cy="343.17802"
     inkscape:window-width="1920"
     inkscape:window-height="1017"
     inkscape:window-x="-8"
     inkscape:window-y="-8"
     inkscape:window-maximized="1"
     inkscape:current-layer="g6" />
  <g
     transform="translate(0.000000,501.000000) scale(0.100000,-0.100000)"
     fill="#000000"
     stroke="none"
     id="g6">
    <path
       d="m 1565,4624 c -22,-8 -52,-19 -66,-23 -14,-5 -34,-13 -45,-19 -10,-5 -50,-24 -89,-41 -38,-17 -77,-36 -85,-41 -8,-5 -28,-16 -45,-24 -16,-8 -61,-35 -100,-61 -56.265,-24.0702 -103.8413,-71.4742 -150,-102 -25,-15 -42.3298,-32.0217 -45,-35 -127.0611,-132.8305 -292.14189,-258.2763 -405,-408 -13,-19 -28,-39 -33,-45 -60,-73 -183,-291 -237,-420 -9,-22 -21,-48 -26,-58 -26,-48 -93,-280 -116,-397 -21,-110 -42,-322 -43,-423 0,-177 26,-394 67,-552 22,-88 72,-245 88,-280 7,-16 21,-48 30,-70 43,-103 142,-287 157,-293 4,-2 8,-8 8,-14 0,-9 56,-96 69,-108 3,-3 19,-24 35,-47 16,-24 33,-43 37,-43 5,0 9,-4 9,-9 0,-21 200,-230 294,-306 27,-22 54,-45 60,-50 45,-42 241,-170 335,-219 30,-15 62,-32 70,-36 154,-82 433,-167 672,-205 132,-21 498,-21 623,0 167,28 320,65 383,91 17,8 35,14 41,14 33,0 311,128 400,184 72.5831,31.0399 134.5088,89.74045 197,129 133.0379,112.55808 274.2858,236.27634 375,352 38,45 141,184 175,235 91,137 206,383 250,530 45,154 55,192 55,210 0,13 5,18 15,14 8,-4 15,-12 15,-20 0,-8 4,-14 9,-14 5,0 14,-12 20,-27 12,-32 30,-60 50,-82 12,-14 13,-3 8,79 -4,52 -11,173 -17,269 -5,96 -11,176 -13,178 -2,1 -10,-9 -18,-25 -19,-37 -52,-86 -61,-90 -5,-2 -8,-8 -8,-14 0,-12 -72,-132 -82,-136 -5,-2 -8,-8 -8,-14 0,-6 -14,-30 -30,-55 -16,-24 -30,-48 -30,-52 0,-5 -6,-14 -14,-20 -8,-6 -16,-20 -19,-31 -4,-14 -1,-17 12,-12 9,3 18,8 21,11 3,4 16,12 30,19 40,20 66,37 85,52 16,14 17,12 10,-18 -8,-38 -67,-176 -103,-241 -59,-108 -167,-278 -192,-301 -3,-3 -23,-27 -44,-55 -125.2143,-156.8099 -303.5022,-283.4377 -448,-402 -93.9527,-79.42915 -208.4428,-128.55183 -252,-150 -130.4197,-67.51052 -294.4289,-123.63666 -441,-157 -44,-9 -100,-22 -125,-28 -73,-17 -330,-26 -483,-17 -149,8 -248,24 -382,59 -134,36 -139,37 -165,48 -14,5 -45,18 -70,27 -121,47 -349,166 -358,188 -2,4 -8,7 -13,7 -165.5664,96.3381 -311.1019,235.2875 -440,377 -48,54 -187,245 -209,288 -6,11 -19,34 -29,50 -28,44 -99,189 -126,260 -14,36 -50,143 -69,205 -15,48 -36,148 -58,270 -17,100 -17,478 0,585 29,173 98,431 124,460 4,5 8,15 8,22 0,30 152,323 172,331 5,2 8,8 8,13 0,11 42,72 53,77 17.36044,28.6242 27.03915,39.1034 39,60 10,15 33,44 53,65 19,21 35,40 35,43 0,6 184,189 226,224 58,49 116.1476,83.8081 124,90 3.3547,2.6453 7.0902,6.1163 11.0581,10.0581 C 1336.7336,4465.6963 1357,4486 1452,4545 c 9,5 38,21 65,35 26,14 50,28 53,31 3,3 19,11 35,17 17,6 23,11 15,11 -8,0 -33,-7 -55,-15 z"
       id="path2"
       sodipodi:nodetypes="scccsccccccccccccccsccsscccccccscccccscsscccccccssscsscccscccccccccccccccccccccccssscccscssccscss" />
    <path
       d="m 2337,4593 c -31.6639,-3.7726 -52.7287,-6.1659 -122,-16 -78,-12 -209,-48 -335,-92 -117,-41 -395,-194 -452,-248 -7,-7 -36,-30 -63,-52 -78,-61 -185,-160 -185,-170 0,-3 -12,-17 -26,-30 -14,-13 -57,-66 -95,-117 -38,-51 -73,-98 -79,-105 -5,-7 -10,-14 -10,-17 0,-2 -19,-37 -42,-78 -54,-92 -87,-162 -122,-255 -45,-121 -47,-128 -82,-278 -27,-118 -37,-257 -31,-460 4,-110 11,-217 17,-239 7,-21 15,-59 20,-85 17,-91 51,-203 76,-253 8,-14 14,-31 14,-37 0,-13 93,-203 121,-246 10,-16 22,-37 26,-45 3,-8 9,-17 12,-20 10,-9 51,-69 51,-75 0,-3 9,-16 21,-28 19,-20 20,-21 14,-2 -4,11 -13,34 -20,50 -38,90 -45,107 -45,119 0,8 -7,27 -15,42 -8,16 -15,36 -15,45 0,8 -6,35 -14,60 -39,122 -51,240 -51,484 1,245 6,295 52,470 21,82 73,236 92,273 5,9 27,55 50,102 40,84 81,160 91,170 14,14 50,70 50,79 0,5 3,11 8,13 4,2 20,21 37,43 51,68 67,86 181,202 60,62 117.1169,109.5135 122,113 10.741,7.6691 6.9496,4.1871 12,8 7.9809,6.0254 146,118 213,158 248,148 469,226 768,269 88,13 158,16 285,13 179,-6 261,-16 414,-55 134,-34 148,-39 210,-63 30,-12 70,-27 88,-33 17,-6 32,-14 32,-19 0,-4 7,-8 15,-8 14,0 95,-38 105,-50 4,-5 39,-23 75,-39 22,-10 -85,85 -150,134 -22,16 -41,33 -43,37 -2,4 -8,8 -13,8 -9,0 -65,36 -79,50 -22,22 -236,126 -355,173 -71,28 -230,68 -361,91 -92,16 -436.5991,11.8897 -467,9 z"
       id="path4"
       sodipodi:nodetypes="cccccssscscccccccscccscccscscccccsscccssccccccsscccsssccc" />
  </g>
</svg>
