<?xml version="1.0" encoding="UTF-8" standalone="no"?>
<svg
   version="1.0"
   width="491.000000pt"
   height="501.000000pt"
   viewBox="0 0 491.000000 501.000000"
   preserveAspectRatio="xMidYMid meet"
   id="svg8"
   sodipodi:docname="Profit+BuhoLogo.svg"
   inkscape:version="1.2.1 (9c6d41e410, 2022-07-14)"
   inkscape:export-filename="Profit+BuhoLogo.png"
   inkscape:export-xdpi="96"
   inkscape:export-ydpi="96"
   xmlns:inkscape="http://www.inkscape.org/namespaces/inkscape"
   xmlns:sodipodi="http://sodipodi.sourceforge.net/DTD/sodipodi-0.dtd"
   xmlns="http://www.w3.org/2000/svg"
   xmlns:svg="http://www.w3.org/2000/svg">
  <defs
     id="defs12" />
  <sodipodi:namedview
     id="namedview10"
     pagecolor="#ffffff"
     bordercolor="#000000"
     borderopacity="0.25"
     inkscape:showpageshadow="2"
     inkscape:pageopacity="0.0"
     inkscape:pagecheckerboard="0"
     inkscape:deskcolor="#d1d1d1"
     inkscape:document-units="pt"
     showgrid="false"
     inkscape:zoom="0.44300028"
     inkscape:cx="623.02443"
     inkscape:cy="422.12163"
     inkscape:window-width="1920"
     inkscape:window-height="1017"
     inkscape:window-x="-8"
     inkscape:window-y="-8"
     inkscape:window-maximized="1"
     inkscape:current-layer="g6" />
  <g
     transform="matrix(0.1,0,0,-0.1,-1.6930012,475.60498)"
     fill="#000000"
     stroke="none"
     id="g6">
    <path
       d="m 1565,4624 c -22,-8 -52,-19 -66,-23 -14,-5 -34,-13 -45,-19 -10,-5 -50,-24 -89,-41 -38,-17 -77,-36 -85,-41 -8,-5 -28,-16 -45,-24 -16,-8 -61,-35 -100,-61 -56.265,-24.0702 -103.8413,-71.4742 -150,-102 -25,-15 -42.3298,-32.0217 -45,-35 -127.0611,-132.8305 -292.14189,-258.2763 -405,-408 -13,-19 -28,-39 -33,-45 -60,-73 -183,-291 -237,-420 -9,-22 -21,-48 -26,-58 -26,-48 -93,-280 -116,-397 -21,-110 -42,-322 -43,-423 0,-177 26,-394 67,-552 22,-88 72,-245 88,-280 7,-16 21,-48 30,-70 43,-103 142,-287 157,-293 4,-2 8,-8 8,-14 0,-9 56,-96 69,-108 3,-3 19,-24 35,-47 16,-24 33,-43 37,-43 5,0 9,-4 9,-9 0,-21 200,-230 294,-306 27,-22 54,-45 60,-50 45,-42 241,-170 335,-219 30,-15 62,-32 70,-36 154,-82 433,-167 672,-205 132,-21 498,-21 623,0 167,28 320,65 383,91 17,8 35,14 41,14 33,0 311,128 400,184 72.5831,31.0399 134.5088,89.74045 197,129 133.0379,112.55808 274.2858,236.27634 375,352 38,45 141,184 175,235 91,137 206,383 250,530 45,154 55,192 55,210 0,13 5,18 15,14 8,-4 15,-12 15,-20 0,-8 4,-14 9,-14 5,0 14,-12 20,-27 12,-32 30,-60 50,-82 12,-14 13,-3 8,79 -4,52 -11,173 -17,269 -5,96 -11,176 -13,178 -2,1 -10,-9 -18,-25 -19,-37 -52,-86 -61,-90 -5,-2 -8,-8 -8,-14 0,-12 -72,-132 -82,-136 -5,-2 -8,-8 -8,-14 0,-6 -14,-30 -30,-55 -16,-24 -30,-48 -30,-52 0,-5 -6,-14 -14,-20 -8,-6 -16,-20 -19,-31 -4,-14 -1,-17 12,-12 9,3 18,8 21,11 3,4 16,12 30,19 40,20 66,37 85,52 16,14 17,12 10,-18 -8,-38 -67,-176 -103,-241 -59,-108 -167,-278 -192,-301 -3,-3 -23,-27 -44,-55 -125.2143,-156.8099 -303.5022,-283.4377 -448,-402 -93.9527,-79.42915 -208.4428,-128.55183 -252,-150 -130.4197,-67.51052 -294.4289,-123.63666 -441,-157 -44,-9 -100,-22 -125,-28 -73,-17 -330,-26 -483,-17 -149,8 -248,24 -382,59 -134,36 -139,37 -165,48 -14,5 -45,18 -70,27 -121,47 -349,166 -358,188 -2,4 -8,7 -13,7 -165.5664,96.3381 -311.1019,235.2875 -440,377 -48,54 -187,245 -209,288 -6,11 -19,34 -29,50 -28,44 -99,189 -126,260 -14,36 -50,143 -69,205 -15,48 -36,148 -58,270 -17,100 -17,478 0,585 29,173 98,431 124,460 4,5 8,15 8,22 0,30 152,323 172,331 5,2 8,8 8,13 0,11 42,72 53,77 17.36044,28.6242 27.03915,39.1034 39,60 10,15 33,44 53,65 19,21 35,40 35,43 0,6 184,189 226,224 58,49 116.1476,83.8081 124,90 3.3547,2.6453 7.0902,6.1163 11.0581,10.0581 C 1336.7336,4465.6963 1357,4486 1452,4545 c 9,5 38,21 65,35 26,14 50,28 53,31 3,3 19,11 35,17 17,6 23,11 15,11 -8,0 -33,-7 -55,-15 z"
       id="path2"
       sodipodi:nodetypes="scccsccccccccccccccsccsscccccccscccccscsscccccccssscsscccscccccccccccccccccccccccssscccscssccscss"
       style="fill:#ffffff;fill-opacity:0.99607843" />
    <path
       d="m 1969.6437,2099.8031 c 0,-45 -25,-198 -46,-288 -43,-176 -143,-407 -241,-556 -18,-28 -33,-58 -33,-67 0,-8 14,-54 30,-101 17,-48 30,-91.99994 28,-98.99994 62.9538,-252.57537 263.3491,-493.66477 337,-709.00007 2,-31 112,-182.000041 177,-244.000046 97,-93 145,-117 242,-122.000004 127,-7 190,19.000004 293,119.000004 58,56.000005 205,249.000046 189,249.000046 -2,0 23,48 55,108 108,193 170,337 297,690.00001 l 41,113 -53,87 c -144,236 -224,455 -261,712 -10,63 -19,117 -20,118 -2,2 -19,-1 -37,-7 -71,-22 -265,-51 -391,-57 -184,-9 -396,14 -579,61 -21,5 -28,3 -28,-7 z m 59,-1014 c 18,-23 21,-41 21,-115.99994 0,-81.00002 -2,-91.00002 -25,-113.00002 -30,-31 -73,-32 -103,-5 -20,19 -22,31 -22,120.00002 0,86.99994 3,102.99994 20,119.99994 30,30 83,27 109,-6 z m 183,9 c 15,-14 18,-32 18,-123.99994 0,-100.00002 -2,-109.00002 -22,-123.00002 -31,-22 -70,-20 -96,4 -20,19 -22,31 -22,122.00002 0,79.99994 3,104.99994 17,119.99994 20,23 80,24 105,1 z m 660,0 c 15,-14 18,-32 18,-123.99994 0,-100.00002 -2,-109.00002 -22,-123.00002 -31,-22 -70,-20 -96,4 -20,19 -22,31 -22,120.00002 0,86.99994 3,102.99994 20,119.99994 24,24 77,26 102,3 z m 192,-5 c 12,-17 16,-48 16,-119.99994 0,-111.00002 -14,-138.00002 -70,-138.00002 -57,0 -70,27 -70,142.00002 0,118.99994 10,137.99994 71,137.99994 28,0 42,-6 53,-22 z m -652,-80 c 4,-7 8,-40.99994 8,-74.99996 0,-51 -4,-66 -22,-83 -28,-26 -72,-26 -98,0 -16,16 -20,33 -20,83 0,66.99996 12,92.99996 45,98.99996 27,6 77,-9 87,-24 z m 281,0 c 12,-13.99994 17,-36.99994 17,-74.99996 0,-44 -5,-58 -25,-78 -30,-31 -71,-32 -102,-3 -19,18 -23,32 -23,83 0,62.00002 11,83.99996 50,97.99996 24,8 64,-4 83,-25 z"
       id="path413"
       sodipodi:nodetypes="sccsccccccscccccscccscsccssccsccscccsccssccssssccscsscccsccscc"
       style="fill:#ffffff;fill-opacity:0.99607843" />
    <path
       d="m 1185.666,2572.1881 c 1,-42 45,-272 73,-379 62,-234 195,-577 216,-554 23,24 102,152 113,181 12,33 28,45 28,20 0,-29 -40,-217 -60,-280 -43,-136 9,-86 99,98 50,101 70,152 97,253 7,24 21,12 18,-15 -25,-235 -51,-373 -92,-481 -33,-85.0001 -3,-47 48,62 83,177 133,357 146,531 l 7,90 -79,37 c -182,86 -380,223 -526,366 -49,47 -88,79 -88,71 z"
       id="path409"
       style="fill:#ffffff;fill-opacity:0.99607843" />
    <path
       d="m 3729.6191,2548.2973 c -141,-141 -329,-276 -509,-364 -128,-63 -122,-47 -96,-222 29,-188 65,-306 152,-485 19,-40 37,-71 40,-69 2,3 -7,43 -22,90 -14,47 -34,130 -45,184 -18,99 -37,292 -27,283 3,-3 20,-48 37,-100 18,-52 56,-142 86,-200 94,-182 124,-200 80,-48 -29,101 -61,267 -52,275 3,3 16,-19 31,-48 28,-60 106,-179 116,-179 15,0 135,307 183,470 44,150 99,416 94,455 -3,21 -10,16 -68,-42 z"
       id="path411"
       style="fill:#ffffff;fill-opacity:0.99607843" />
    <path
       d="m 1198.5139,3501.813 c -36.7283,-4.7684 -69.7837,-11.3249 -72.8443,-14.3052 -4.285,-4.1722 -0.6122,-5.9604 9.182,-5.9604 41.0132,0 188.5382,-36.3588 298.7229,-73.9097 110.7968,-38.147 249.7519,-96.5595 243.0183,-103.116 -1.2243,-1.1921 -29.3825,5.3644 -63.05,15.4971 -72.8443,21.4578 -197.7203,54.2403 -208.1266,54.2403 -12.2428,0 -9.7942,-79.8703 3.0607,-128.746 76.5171,-281.9299 427.8838,-376.7012 642.1317,-173.4495 l 31.8311,29.8024 29.3826,-23.2459 c 162.8284,-127.5538 280.3588,-292.0626 359.3245,-500.0827 3.6728,-9.5368 9.182,-1.1922 24.4854,38.743 63.0501,162.1245 177.5197,322.4609 306.6807,429.7493 69.1715,57.2204 68.5593,57.2204 83.2506,38.743 17.752,-21.4576 76.5171,-64.969 113.8575,-82.8505 49.5831,-25.0339 115.0818,-39.935 170.1741,-39.935 174.4591,0 330.554,118.0171 373.4036,283.1219 9.1821,34.5707 12.8549,128.15 5.5093,128.15 -10.4064,0 -176.9077,-42.9153 -219.1451,-56.6244 -26.3219,-8.3447 -50.8074,-14.3051 -54.4802,-13.113 -7.3457,2.3841 56.9287,32.7825 130.3852,61.9888 127.3245,50.6639 313.4141,104.3081 393.6041,113.2488 69.1715,8.3446 -21.4248,24.4379 -164.0527,29.8023 -339.124,11.9209 -660.4959,-100.7319 -915.7571,-321.865 -68.5593,-60.2006 -168.3376,-171.6614 -213.0237,-238.4185 -14.6912,-22.0537 -28.1582,-39.9351 -30.6068,-39.9351 -1.8364,0 -18.3641,20.8616 -36.1161,46.4916 -123.0395,180.006 -314.0263,339.7463 -515.4194,432.1335 -227.1028,104.3081 -481.7518,144.2433 -725.3823,113.8449 z"
       id="path407"
       style="stroke-width:0.604038;fill:#ffffff;fill-opacity:0.99607843" />
    <path
       d="m 2415.9994,4601.7094 c -205.7084,-12.2386 -386.4465,-56.6604 -571.9408,-140.9712 -38.3448,-24.8067 -38.5196,-24.959 -70.1549,-42.1554 -4.1617,-3.6263 -11.2961,-6.7993 -15.4578,-6.7993 -22.889,-8.2423 -22.5151,-9.0715 -57.6697,-25.3839 -62.63,-43.1215 -61.7462,-41.6191 -102.2597,-74.3385 -14.6378,-10.8319 -23.0067,-19.7744 -38.0501,-29.9168 -10.107,-7.2525 -18.4305,-14.9583 -18.4305,-17.2247 0,0 -5.1985,-1.4953 -20.8087,-17.2248 38.0765,29.8246 -10.5131,12.7766 -112.9612,-119.6669 -16.0524,-16.3183 -85.0181,-126.4662 -106.4213,-170.4347 -21.9978,-44.8751 -54.1025,-134.1721 -49.9408,-137.345 1.189,-1.3599 38.0501,0.4533 81.451,3.6262 l 79.6673,5.4394 7.729,22.6642 c 13.6742,41.7021 55.2916,120.5735 89.1799,169.5282 171.8201,248.3995 492.2733,419.2875 854.9384,456.0035 83.8292,8.6124 227.7062,8.6124 307.9681,0 365.0433,-38.9824 680.1458,-207.604 853.7493,-456.0035 27.9431,-40.3423 73.1276,-126.013 87.3964,-165.4487 l 10.107,-27.6502 77.8839,-4.9862 c 42.8064,-2.7196 79.0728,-4.0795 80.8565,-3.1729 7.1344,5.4394 -35.672,115.134 -67.7768,174.5142 -26.754,48.9547 -78.4784,123.2932 -111.1777,159.5559 -60.6423,67.086 -71.3439,77.5116 -104.6378,106.975 -230.6788,203.5244 -542.214,321.8315 -895.9612,340.8694 -91.558,4.9861 -97.5034,4.9861 -187.2778,-0.4533 z"
       id="path397"
       sodipodi:nodetypes="cccccccccccccccccccccccccccc"
       style="stroke-width:0.519126;fill:#ffffff;fill-opacity:0.99607843" />
  </g>
</svg>
